<?xml version="1.0" encoding="UTF-8" standalone="no"?>
<!-- Created with Inkscape (http://www.inkscape.org/) -->

<svg
   width="65.390938mm"
   height="56.200188mm"
   viewBox="0 0 65.390938 56.200188"
   version="1.1"
   id="svg1"
   xmlns="http://www.w3.org/2000/svg"
   xmlns:svg="http://www.w3.org/2000/svg">
  <defs
     id="defs1" />
  <g
     id="layer1"
     transform="translate(-234.38051,-130.25704)">
    <g
       id="g91"
       transform="translate(204.44294,38.402237)">
      <g
         id="g90"
         transform="translate(-4.9070738,-18.965991)">
        <path
           id="path90"
           style="fill:none;stroke:#000000;stroke-width:0.4;stroke-dasharray:none;stroke-opacity:1"
           d="m 68.043909,111.07487 32.021451,0.0692 z m 0.01188,0.003 -16.061544,27.76904 z m 32.006431,0.0598 -15.976396,27.76956 z m -48.061776,27.66931 32.079995,0.0851 z" />
      </g>
      <path
         style="fill:#1900f6;fill-opacity:1;stroke:#2525ff;stroke-width:0.168518;stroke-dasharray:none;stroke-opacity:1"
         id="path91"
         d="m 107.34937,-104.28966 a 15.995491,4.0089459 0 0 1 -16.028606,3.99227 15.995491,4.0089459 0 0 1 -15.962236,-4.00894 h 15.995491 z"
         transform="matrix(-0.50192518,0.86491105,-0.96644995,-0.256855,0,0)" />
    </g>
    <g
       id="g93"
       transform="translate(188.43492,66.331133)">
      <g
         id="g92"
         transform="translate(-4.9070738,-18.965991)">
        <path
           id="path92"
           style="fill:none;stroke:#000000;stroke-width:0.4;stroke-dasharray:none;stroke-opacity:1"
           d="m 68.043909,111.07487 32.021451,0.0692 z m 0.01188,0.003 -16.061544,27.76904 z m 32.006431,0.0598 -15.976396,27.76956 z m -48.061776,27.66931 32.079995,0.0851 z" />
      </g>
      <path
         style="fill:#1900f6;fill-opacity:1;stroke:#2525ff;stroke-width:0.168518;stroke-dasharray:none;stroke-opacity:1"
         id="path93"
         d="m 107.34937,-104.28966 a 15.995491,4.0089459 0 0 1 -16.028606,3.99227 15.995491,4.0089459 0 0 1 -15.962236,-4.00894 h 15.995491 z"
         transform="matrix(-0.50192518,0.86491105,-0.96644995,-0.256855,0,0)" />
    </g>
    <text
       xml:space="preserve"
       style="font-size:11.0212px;writing-mode:lr-tb;direction:ltr;fill:#1900f6;fill-opacity:1;stroke:#2525ff;stroke-width:0.347124;stroke-dasharray:none;stroke-opacity:1"
       x="296.5119"
       y="152.74466"
       id="text171"
       transform="scale(0.86306499,1.1586613)"><tspan
         id="tspan171"
         style="stroke-width:0.347124"
         x="296.5119"
         y="152.74466">1</tspan></text>
    <text
       xml:space="preserve"
       style="font-size:11.0212px;writing-mode:lr-tb;direction:ltr;fill:#1900f6;fill-opacity:1;stroke:#2525ff;stroke-width:0.347124;stroke-dasharray:none;stroke-opacity:1"
       x="315.14587"
       y="128.71016"
       id="text172"
       transform="scale(0.86306499,1.1586613)"><tspan
         id="tspan172"
         style="stroke-width:0.347124"
         x="315.14587"
         y="128.71016">2</tspan></text>
  </g>
</svg>
