<?xml version="1.0" encoding="UTF-8" standalone="no"?>
<!-- Created with Inkscape (http://www.inkscape.org/) -->

<svg
   width="82.59108mm"
   height="60.27441mm"
   viewBox="0 0 82.59108 60.27441"
   version="1.1"
   id="svg1"
   xmlns="http://www.w3.org/2000/svg"
   xmlns:svg="http://www.w3.org/2000/svg">
  <defs
     id="defs1" />
  <g
     id="layer1"
     transform="translate(-699.05515,-39.442294)">
    <g
       id="g91-6"
       transform="rotate(60,455.61987,674.95707)">
      <g
         id="g90-8"
         transform="translate(-4.9070738,-18.965991)">
        <path
           id="path90-5"
           style="fill:none;stroke:#000000;stroke-width:0.4;stroke-dasharray:none;stroke-opacity:1"
           d="m 68.043909,111.07487 32.021451,0.0692 z m 0.01188,0.003 -16.061544,27.76904 z m 32.006431,0.0598 -15.976396,27.76956 z m -48.061776,27.66931 32.079995,0.0851 z" />
      </g>
      <path
         style="fill:#1900f6;fill-opacity:1;stroke:#2525ff;stroke-width:0.168518;stroke-dasharray:none;stroke-opacity:1"
         id="path91-7"
         d="m 107.34937,-104.28966 a 15.995491,4.0089459 0 0 1 -16.028606,3.99227 15.995491,4.0089459 0 0 1 -15.962236,-4.00894 h 15.995491 z"
         transform="matrix(-0.50192518,0.86491105,-0.96644995,-0.256855,0,0)" />
    </g>
    <g
       id="g93-6"
       transform="rotate(60,439.43674,647.12927)">
      <g
         id="g92-1"
         transform="translate(-4.9070738,-18.965991)">
        <path
           id="path92-8"
           style="fill:none;stroke:#000000;stroke-width:0.4;stroke-dasharray:none;stroke-opacity:1"
           d="m 68.043909,111.07487 32.021451,0.0692 z m 0.01188,0.003 -16.061544,27.76904 z m 32.006431,0.0598 -15.976396,27.76956 z m -48.061776,27.66931 32.079995,0.0851 z" />
      </g>
      <path
         style="fill:#1900f6;fill-opacity:1;stroke:#2525ff;stroke-width:0.168518;stroke-dasharray:none;stroke-opacity:1"
         id="path93-9"
         d="m 107.34937,-104.28966 a 15.995491,4.0089459 0 0 1 -16.028606,3.99227 15.995491,4.0089459 0 0 1 -15.962236,-4.00894 h 15.995491 z"
         transform="matrix(-0.50192518,0.86491105,-0.96644995,-0.256855,0,0)" />
    </g>
    <g
       id="g61-4"
       transform="rotate(180,413.79591,95.785749)">
      <g
         id="g60-3"
         transform="translate(-4.9070738,-18.965991)">
        <path
           id="path60-1"
           style="fill:none;stroke:#000000;stroke-width:0.4;stroke-dasharray:none;stroke-opacity:1"
           d="m 68.043909,111.07487 32.021451,0.0692 z m 0.01188,0.003 -16.061544,27.76904 z m 32.006431,0.0598 -15.976396,27.76956 z m -48.061776,27.66931 32.079995,0.0851 z" />
      </g>
      <path
         style="fill:#1900f6;fill-opacity:1;stroke:#2525ff;stroke-width:0.168518;stroke-dasharray:none;stroke-opacity:1"
         id="path61-2"
         d="m 107.34937,-104.28966 a 15.995491,4.0089459 0 0 1 -16.028606,3.99227 15.995491,4.0089459 0 0 1 -15.962236,-4.00894 h 15.995491 z"
         transform="matrix(-0.50192518,0.86491105,-0.96644995,-0.256855,0,0)" />
    </g>
    <g
       id="g63-3"
       transform="translate(653.10961,-20.579682)">
      <g
         id="g62-3"
         transform="translate(-4.9070738,-18.965991)">
        <path
           id="path62-4"
           style="fill:none;stroke:#000000;stroke-width:0.4;stroke-dasharray:none;stroke-opacity:1"
           d="m 68.043909,111.07487 32.021451,0.0692 z m 0.01188,0.003 -16.061544,27.76904 z m 32.006431,0.0598 -15.976396,27.76956 z m -48.061776,27.66931 32.079995,0.0851 z" />
      </g>
      <path
         style="fill:#1900f6;fill-opacity:1;stroke:#2525ff;stroke-width:0.168518;stroke-dasharray:none;stroke-opacity:1"
         id="path63-11"
         d="m 107.34937,-104.28966 a 15.995491,4.0089459 0 0 1 -16.028606,3.99227 15.995491,4.0089459 0 0 1 -15.962236,-4.00894 h 15.995491 z"
         transform="matrix(-0.50192518,0.86491105,-0.96644995,-0.256855,0,0)" />
    </g>
    <text
       xml:space="preserve"
       style="font-size:11.0212px;writing-mode:lr-tb;direction:ltr;fill:#1900f6;fill-opacity:1;stroke:#2525ff;stroke-width:0.347124;stroke-dasharray:none;stroke-opacity:1"
       x="835.16058"
       y="77.625252"
       id="text186"
       transform="scale(0.863065,1.1586613)"><tspan
         id="tspan186"
         style="stroke-width:0.347124"
         x="835.16058"
         y="77.625252">1</tspan></text>
    <text
       xml:space="preserve"
       style="font-size:11.0212px;writing-mode:lr-tb;direction:ltr;fill:#1900f6;fill-opacity:1;stroke:#2525ff;stroke-width:0.347124;stroke-dasharray:none;stroke-opacity:1"
       x="872.35089"
       y="53.260654"
       id="text187"
       transform="scale(0.863065,1.1586613)"><tspan
         id="tspan187"
         style="stroke-width:0.347124"
         x="872.35089"
         y="53.260654">4</tspan></text>
    <text
       xml:space="preserve"
       style="font-size:11.0212px;writing-mode:lr-tb;direction:ltr;fill:#1900f6;fill-opacity:1;stroke:#2525ff;stroke-width:0.347124;stroke-dasharray:none;stroke-opacity:1"
       x="834.91766"
       y="53.431293"
       id="text188"
       transform="scale(0.863065,1.1586613)"><tspan
         id="tspan188"
         style="stroke-width:0.347124"
         x="834.91766"
         y="53.431293">2</tspan></text>
    <text
       xml:space="preserve"
       style="font-size:11.0212px;writing-mode:lr-tb;direction:ltr;fill:#1900f6;fill-opacity:1;stroke:#2525ff;stroke-width:0.347124;stroke-dasharray:none;stroke-opacity:1"
       x="873.26782"
       y="77.978226"
       id="text189"
       transform="scale(0.863065,1.1586613)"><tspan
         id="tspan189"
         style="stroke-width:0.347124"
         x="873.26782"
         y="77.978226">3</tspan></text>
  </g>
</svg>
