<?xml version="1.0" encoding="UTF-8" standalone="no"?>
<!-- Created with Inkscape (http://www.inkscape.org/) -->

<svg
   width="98.673302mm"
   height="84.386856mm"
   viewBox="0 0 98.673302 84.386856"
   version="1.1"
   id="svg1"
   xmlns="http://www.w3.org/2000/svg"
   xmlns:svg="http://www.w3.org/2000/svg">
  <defs
     id="defs1" />
  <g
     id="layer1"
     transform="translate(-894.37577,-113.84658)">
    <g
       id="g91-9"
       transform="translate(864.43822,22.069703)">
      <g
         id="g90-3"
         transform="translate(-4.9070738,-18.965991)">
        <path
           id="path90-4"
           style="fill:none;stroke:#000000;stroke-width:0.4;stroke-dasharray:none;stroke-opacity:1"
           d="m 68.043909,111.07487 32.021451,0.0692 z m 0.01188,0.003 -16.061544,27.76904 z m 32.006431,0.0598 -15.976396,27.76956 z m -48.061776,27.66931 32.079995,0.0851 z" />
      </g>
      <path
         style="fill:#1900f6;fill-opacity:1;stroke:#2525ff;stroke-width:0.168518;stroke-dasharray:none;stroke-opacity:1"
         id="path91-4"
         d="m 107.34937,-104.28966 a 15.995491,4.0089459 0 0 1 -16.028606,3.99227 15.995491,4.0089459 0 0 1 -15.962236,-4.00894 h 15.995491 z"
         transform="matrix(-0.50192518,0.86491105,-0.96644995,-0.256855,0,0)" />
    </g>
    <g
       id="g93-60"
       transform="translate(848.43021,49.998603)">
      <g
         id="g92-6"
         transform="translate(-4.9070738,-18.965991)">
        <path
           id="path92-6"
           style="fill:none;stroke:#000000;stroke-width:0.4;stroke-dasharray:none;stroke-opacity:1"
           d="m 68.043909,111.07487 32.021451,0.0692 z m 0.01188,0.003 -16.061544,27.76904 z m 32.006431,0.0598 -15.976396,27.76956 z m -48.061776,27.66931 32.079995,0.0851 z" />
      </g>
      <path
         style="fill:#1900f6;fill-opacity:1;stroke:#2525ff;stroke-width:0.168518;stroke-dasharray:none;stroke-opacity:1"
         id="path93-1"
         d="m 107.34937,-104.28966 a 15.995491,4.0089459 0 0 1 -16.028606,3.99227 15.995491,4.0089459 0 0 1 -15.962236,-4.00894 h 15.995491 z"
         transform="matrix(-0.50192518,0.86491105,-0.96644995,-0.256855,0,0)" />
    </g>
    <g
       id="g80-3"
       transform="rotate(-60,562.91507,-617.66395)">
      <g
         id="g79-7"
         transform="translate(-4.9070738,-18.965991)">
        <path
           id="path79-8"
           style="fill:none;stroke:#000000;stroke-width:0.4;stroke-dasharray:none;stroke-opacity:1"
           d="m 68.043909,111.07487 32.021451,0.0692 z m 0.01188,0.003 -16.061544,27.76904 z m 32.006431,0.0598 -15.976396,27.76956 z m -48.061776,27.66931 32.079995,0.0851 z" />
      </g>
      <path
         style="fill:#1900f6;fill-opacity:1;stroke:#2525ff;stroke-width:0.168518;stroke-dasharray:none;stroke-opacity:1"
         id="path80-8"
         d="m 107.34937,-104.28966 a 15.995491,4.0089459 0 0 1 -16.028606,3.99227 15.995491,4.0089459 0 0 1 -15.962236,-4.00894 h 15.995491 z"
         transform="matrix(-0.50192518,0.86491105,-0.96644995,-0.256855,0,0)" />
    </g>
    <g
       id="g82-2"
       transform="rotate(-120,533.9938,-127.86668)">
      <g
         id="g81-9"
         transform="translate(-4.9070738,-18.965991)">
        <path
           id="path81-1"
           style="fill:none;stroke:#000000;stroke-width:0.4;stroke-dasharray:none;stroke-opacity:1"
           d="m 68.043909,111.07487 32.021451,0.0692 z m 0.01188,0.003 -16.061544,27.76904 z m 32.006431,0.0598 -15.976396,27.76956 z m -48.061776,27.66931 32.079995,0.0851 z" />
      </g>
      <path
         style="fill:#1900f6;fill-opacity:1;stroke:#2525ff;stroke-width:0.168518;stroke-dasharray:none;stroke-opacity:1"
         id="path82-3"
         d="m 107.34937,-104.28966 a 15.995491,4.0089459 0 0 1 -16.028606,3.99227 15.995491,4.0089459 0 0 1 -15.962236,-4.00894 h 15.995491 z"
         transform="matrix(-0.50192518,0.86491105,-0.96644995,-0.256855,0,0)" />
    </g>
    <g
       id="g113"
       transform="rotate(180,519.49736,116.98633)">
      <g
         id="g112"
         transform="translate(-4.9070738,-18.965991)">
        <path
           id="path112"
           style="fill:none;stroke:#000000;stroke-width:0.4;stroke-dasharray:none;stroke-opacity:1"
           d="m 68.043909,111.07487 32.021451,0.0692 z m 0.01188,0.003 -16.061544,27.76904 z m 32.006431,0.0598 -15.976396,27.76956 z m -48.061776,27.66931 32.079995,0.0851 z" />
      </g>
      <path
         style="fill:#1900f6;fill-opacity:1;stroke:#2525ff;stroke-width:0.168518;stroke-dasharray:none;stroke-opacity:1"
         id="path113"
         d="m 107.34937,-104.28966 a 15.995491,4.0089459 0 0 1 -16.028606,3.99227 15.995491,4.0089459 0 0 1 -15.962236,-4.00894 h 15.995491 z"
         transform="matrix(-0.50192518,0.86491105,-0.96644995,-0.256855,0,0)" />
    </g>
    <text
       xml:space="preserve"
       style="font-size:11.0212px;writing-mode:lr-tb;direction:ltr;fill:#1900f6;fill-opacity:1;stroke:#2525ff;stroke-width:0.347124;stroke-dasharray:none;stroke-opacity:1"
       x="1061.4709"
       y="138.53889"
       id="text194"
       transform="scale(0.863065,1.1586613)"><tspan
         id="tspan194"
         style="stroke-width:0.347124"
         x="1061.4709"
         y="138.53889">1</tspan></text>
    <text
       xml:space="preserve"
       style="font-size:11.0212px;writing-mode:lr-tb;direction:ltr;fill:#1900f6;fill-opacity:1;stroke:#2525ff;stroke-width:0.347124;stroke-dasharray:none;stroke-opacity:1"
       x="1118.3699"
       y="139.06192"
       id="text195"
       transform="scale(0.863065,1.1586613)"><tspan
         id="tspan195"
         style="stroke-width:0.347124"
         x="1118.3699"
         y="139.06192">4</tspan></text>
    <text
       xml:space="preserve"
       style="font-size:11.0212px;writing-mode:lr-tb;direction:ltr;fill:#1900f6;fill-opacity:1;stroke:#2525ff;stroke-width:0.347124;stroke-dasharray:none;stroke-opacity:1"
       x="1080.1049"
       y="114.50438"
       id="text196"
       transform="scale(0.863065,1.1586613)"><tspan
         id="tspan196"
         style="stroke-width:0.347124"
         x="1080.1049"
         y="114.50438">2</tspan></text>
    <text
       xml:space="preserve"
       style="font-size:11.0212px;writing-mode:lr-tb;direction:ltr;fill:#1900f6;fill-opacity:1;stroke:#2525ff;stroke-width:0.347124;stroke-dasharray:none;stroke-opacity:1"
       x="1087.8923"
       y="151.55438"
       id="text197"
       transform="scale(0.863065,1.1586613)"><tspan
         id="tspan197"
         style="stroke-width:0.347124"
         x="1087.8923"
         y="151.55438">5</tspan></text>
    <text
       xml:space="preserve"
       style="font-size:11.0212px;writing-mode:lr-tb;direction:ltr;fill:#1900f6;fill-opacity:1;stroke:#2525ff;stroke-width:0.347124;stroke-dasharray:none;stroke-opacity:1"
       x="1118.2122"
       y="114.5732"
       id="text198"
       transform="scale(0.863065,1.1586613)"><tspan
         id="tspan198"
         style="stroke-width:0.347124"
         x="1118.2122"
         y="114.5732">3</tspan></text>
  </g>
</svg>
