<?xml version="1.0" encoding="UTF-8" standalone="no"?>
<!-- Created with Inkscape (http://www.inkscape.org/) -->

<svg
   width="139.96948mm"
   height="113.31532mm"
   viewBox="0 0 139.96948 113.31532"
   version="1.1"
   id="svg1"
   xmlns="http://www.w3.org/2000/svg"
   xmlns:svg="http://www.w3.org/2000/svg">
  <defs
     id="defs1" />
  <g
     id="layer1"
     transform="translate(-1025.0367,-192.32927)">
    <g
       id="g95-8-3"
       transform="rotate(-90,654.2983,-334.72412)">
      <g
         id="g94-2-1"
         transform="translate(-4.9070738,-18.965991)">
        <path
           id="path94-4-9"
           style="fill:none;stroke:#000000;stroke-width:0.4;stroke-dasharray:none;stroke-opacity:1"
           d="m 68.043909,111.07487 32.021451,0.0692 z m 0.01188,0.003 -16.061544,27.76904 z m 32.006431,0.0598 -15.976396,27.76956 z m -48.061776,27.66931 32.079995,0.0851 z" />
      </g>
      <path
         style="fill:#1900f6;fill-opacity:1;stroke:#2525ff;stroke-width:0.168518;stroke-dasharray:none;stroke-opacity:1"
         id="path95-5-8"
         d="m 107.34937,-104.28966 a 15.995491,4.0089459 0 0 1 -16.028606,3.99227 15.995491,4.0089459 0 0 1 -15.962236,-4.00894 h 15.995491 z"
         transform="matrix(-0.50192518,0.86491105,-0.96644995,-0.256855,0,0)" />
    </g>
    <g
       id="g97-5-6"
       transform="rotate(-90,676.26675,-340.68457)">
      <g
         id="g96-1-5"
         transform="translate(-4.9070738,-18.965991)">
        <path
           id="path96-71-0"
           style="fill:none;stroke:#000000;stroke-width:0.4;stroke-dasharray:none;stroke-opacity:1"
           d="m 68.043909,111.07487 32.021451,0.0692 z m 0.01188,0.003 -16.061544,27.76904 z m 32.006431,0.0598 -15.976396,27.76956 z m -48.061776,27.66931 32.079995,0.0851 z" />
      </g>
      <path
         style="fill:#1900f6;fill-opacity:1;stroke:#2525ff;stroke-width:0.168518;stroke-dasharray:none;stroke-opacity:1"
         id="path97-1-2"
         d="m 107.34937,-104.28966 a 15.995491,4.0089459 0 0 1 -16.028606,3.99227 15.995491,4.0089459 0 0 1 -15.962236,-4.00894 h 15.995491 z"
         transform="matrix(-0.50192518,0.86491105,-0.96644995,-0.256855,0,0)" />
    </g>
    <g
       id="g99-5-8"
       transform="rotate(-90,698.2352,-346.64502)">
      <g
         id="g98-2-6"
         transform="translate(-4.9070738,-18.965991)">
        <path
           id="path98-7-0"
           style="fill:none;stroke:#000000;stroke-width:0.4;stroke-dasharray:none;stroke-opacity:1"
           d="m 68.043909,111.07487 32.021451,0.0692 z m 0.01188,0.003 -16.061544,27.76904 z m 32.006431,0.0598 -15.976396,27.76956 z m -48.061776,27.66931 32.079995,0.0851 z" />
      </g>
      <path
         style="fill:#1900f6;fill-opacity:1;stroke:#2525ff;stroke-width:0.168518;stroke-dasharray:none;stroke-opacity:1"
         id="path99-6-2"
         d="m 107.34937,-104.28966 a 15.995491,4.0089459 0 0 1 -16.028606,3.99227 15.995491,4.0089459 0 0 1 -15.962236,-4.00894 h 15.995491 z"
         transform="matrix(-0.50192518,0.86491105,-0.96644995,-0.256855,0,0)" />
    </g>
    <text
       xml:space="preserve"
       style="font-size:11.0212px;writing-mode:lr-tb;direction:ltr;fill:#1900f6;fill-opacity:1;stroke:#2525ff;stroke-width:0.347124;stroke-dasharray:none;stroke-opacity:1"
       x="1329.8044"
       y="246.50092"
       id="text179-1-4"
       transform="scale(0.86306499,1.1586613)"><tspan
         id="tspan179-4-8"
         style="stroke-width:0.347124"
         x="1329.8044"
         y="246.50092">1</tspan></text>
    <text
       xml:space="preserve"
       style="font-size:11.0212px;writing-mode:lr-tb;direction:ltr;fill:#1900f6;fill-opacity:1;stroke:#2525ff;stroke-width:0.347124;stroke-dasharray:none;stroke-opacity:1"
       x="1297.5305"
       y="232.75487"
       id="text180-2-6"
       transform="scale(0.86306499,1.1586613)"><tspan
         id="tspan180-3-5"
         style="stroke-width:0.347124"
         x="1297.5305"
         y="232.75487">2</tspan></text>
    <text
       xml:space="preserve"
       style="font-size:11.0212px;writing-mode:lr-tb;direction:ltr;fill:#1900f6;fill-opacity:1;stroke:#2525ff;stroke-width:0.347124;stroke-dasharray:none;stroke-opacity:1"
       x="1265.2107"
       y="218.85539"
       id="text181-2-0"
       transform="scale(0.86306499,1.1586613)"><tspan
         id="tspan181-2-9"
         style="stroke-width:0.347124"
         x="1265.2107"
         y="218.85539">3</tspan></text>
    <g
       id="g97-9-0"
       transform="rotate(-90,610.41985,-322.76208)">
      <g
         id="g96-2-0"
         transform="translate(-4.9070738,-18.965991)">
        <path
           id="path96-79-6"
           style="fill:none;stroke:#000000;stroke-width:0.4;stroke-dasharray:none;stroke-opacity:1"
           d="m 68.043909,111.07487 32.021451,0.0692 z m 0.01188,0.003 -16.061544,27.76904 z m 32.006431,0.0598 -15.976396,27.76956 z m -48.061776,27.66931 32.079995,0.0851 z" />
      </g>
      <path
         style="fill:#1900f6;fill-opacity:1;stroke:#2525ff;stroke-width:0.168518;stroke-dasharray:none;stroke-opacity:1"
         id="path97-5-1"
         d="m 107.34937,-104.28966 a 15.995491,4.0089459 0 0 1 -16.028606,3.99227 15.995491,4.0089459 0 0 1 -15.962236,-4.00894 h 15.995491 z"
         transform="matrix(-0.50192518,0.86491105,-0.96644995,-0.256855,0,0)" />
    </g>
    <g
       id="g99-4-3"
       transform="rotate(-90,632.3883,-328.72253)">
      <g
         id="g98-31-8"
         transform="translate(-4.9070738,-18.965991)">
        <path
           id="path98-2-9"
           style="fill:none;stroke:#000000;stroke-width:0.4;stroke-dasharray:none;stroke-opacity:1"
           d="m 68.043909,111.07487 32.021451,0.0692 z m 0.01188,0.003 -16.061544,27.76904 z m 32.006431,0.0598 -15.976396,27.76956 z m -48.061776,27.66931 32.079995,0.0851 z" />
      </g>
      <path
         style="fill:#1900f6;fill-opacity:1;stroke:#2525ff;stroke-width:0.168518;stroke-dasharray:none;stroke-opacity:1"
         id="path99-3-3"
         d="m 107.34937,-104.28966 a 15.995491,4.0089459 0 0 1 -16.028606,3.99227 15.995491,4.0089459 0 0 1 -15.962236,-4.00894 h 15.995491 z"
         transform="matrix(-0.50192518,0.86491105,-0.96644995,-0.256855,0,0)" />
    </g>
    <text
       xml:space="preserve"
       style="font-size:11.0212px;writing-mode:lr-tb;direction:ltr;fill:#1900f6;fill-opacity:1;stroke:#2525ff;stroke-width:0.347124;stroke-dasharray:none;stroke-opacity:1"
       x="1232.9648"
       y="205.12558"
       id="text1-4"
       transform="scale(0.86306499,1.1586613)"><tspan
         id="tspan1-4"
         style="stroke-width:0.347124"
         x="1232.9648"
         y="205.12558">4</tspan></text>
    <text
       xml:space="preserve"
       style="font-size:11.0212px;writing-mode:lr-tb;direction:ltr;fill:#1900f6;fill-opacity:1;stroke:#2525ff;stroke-width:0.347124;stroke-dasharray:none;stroke-opacity:1"
       x="1200.4325"
       y="191.22617"
       id="text2-6"
       transform="scale(0.86306499,1.1586613)"><tspan
         id="tspan2-0"
         style="stroke-width:0.347124"
         x="1200.4325"
         y="191.22617">5</tspan></text>
  </g>
</svg>
