<?xml version="1.0" encoding="UTF-8" standalone="no"?>
<!-- Created with Inkscape (http://www.inkscape.org/) -->

<svg
   width="98.451935mm"
   height="84.044464mm"
   viewBox="0 0 98.451935 84.044464"
   version="1.1"
   id="svg1"
   xmlns="http://www.w3.org/2000/svg"
   xmlns:svg="http://www.w3.org/2000/svg">
  <defs
     id="defs1" />
  <g
     id="layer1"
     transform="translate(-807.35846,-24.527157)">
    <g
       id="g53-8"
       transform="rotate(-120,448.55283,-138.06084)">
      <g
         id="g22-6"
         transform="translate(-4.9070738,-18.965991)">
        <path
           id="path11-0"
           style="fill:none;stroke:#000000;stroke-width:0.4;stroke-dasharray:none;stroke-opacity:1"
           d="m 68.043909,111.07487 32.021451,0.0692 z m 0.01188,0.003 -16.061544,27.76904 z m 32.006431,0.0598 -15.976396,27.76956 z m -48.061776,27.66931 32.079995,0.0851 z" />
      </g>
      <path
         style="fill:#1900f6;fill-opacity:1;stroke:#2525ff;stroke-width:0.168518;stroke-dasharray:none;stroke-opacity:1"
         id="path53-2"
         d="m 107.34937,-104.28966 a 15.995491,4.0089459 0 0 1 -16.028606,3.99227 15.995491,4.0089459 0 0 1 -15.962236,-4.00894 h 15.995491 z"
         transform="matrix(-0.50192518,0.86491105,-0.96644995,-0.256855,0,0)" />
    </g>
    <g
       id="g55-4"
       transform="rotate(120,487.41843,310.80703)">
      <g
         id="g54-8"
         transform="translate(-4.9070738,-18.965991)">
        <path
           id="path54-6"
           style="fill:none;stroke:#000000;stroke-width:0.4;stroke-dasharray:none;stroke-opacity:1"
           d="m 68.043909,111.07487 32.021451,0.0692 z m 0.01188,0.003 -16.061544,27.76904 z m 32.006431,0.0598 -15.976396,27.76956 z m -48.061776,27.66931 32.079995,0.0851 z" />
      </g>
      <path
         style="fill:#1900f6;fill-opacity:1;stroke:#2525ff;stroke-width:0.168518;stroke-dasharray:none;stroke-opacity:1"
         id="path55-5"
         d="m 107.34937,-104.28966 a 15.995491,4.0089459 0 0 1 -16.028606,3.99227 15.995491,4.0089459 0 0 1 -15.962236,-4.00894 h 15.995491 z"
         transform="matrix(-0.50192518,0.86491105,-0.96644995,-0.256855,0,0)" />
    </g>
    <g
       id="g57-0"
       transform="translate(777.43365,-67.312843)">
      <g
         id="g56-9"
         transform="translate(-4.9070738,-18.965991)">
        <path
           id="path56-0"
           style="fill:none;stroke:#000000;stroke-width:0.4;stroke-dasharray:none;stroke-opacity:1"
           d="m 68.043909,111.07487 32.021451,0.0692 z m 0.01188,0.003 -16.061544,27.76904 z m 32.006431,0.0598 -15.976396,27.76956 z m -48.061776,27.66931 32.079995,0.0851 z" />
      </g>
      <path
         style="fill:#1900f6;fill-opacity:1;stroke:#2525ff;stroke-width:0.168518;stroke-dasharray:none;stroke-opacity:1"
         id="path57-0"
         d="m 107.34937,-104.28966 a 15.995491,4.0089459 0 0 1 -16.028606,3.99227 15.995491,4.0089459 0 0 1 -15.962236,-4.00894 h 15.995491 z"
         transform="matrix(-0.50192518,0.86491105,-0.96644995,-0.256855,0,0)" />
    </g>
    <g
       id="g109"
       transform="rotate(120,487.51325,329.2256)">
      <g
         id="g108"
         transform="translate(-4.9070738,-18.965991)">
        <path
           id="path108"
           style="fill:none;stroke:#000000;stroke-width:0.4;stroke-dasharray:none;stroke-opacity:1"
           d="m 68.043909,111.07487 32.021451,0.0692 z m 0.01188,0.003 -16.061544,27.76904 z m 32.006431,0.0598 -15.976396,27.76956 z m -48.061776,27.66931 32.079995,0.0851 z" />
      </g>
      <path
         style="fill:#1900f6;fill-opacity:1;stroke:#2525ff;stroke-width:0.168518;stroke-dasharray:none;stroke-opacity:1"
         id="path109"
         d="m 107.34937,-104.28966 a 15.995491,4.0089459 0 0 1 -16.028606,3.99227 15.995491,4.0089459 0 0 1 -15.962236,-4.00894 h 15.995491 z"
         transform="matrix(-0.50192518,0.86491105,-0.96644995,-0.256855,0,0)" />
    </g>
    <g
       id="g111"
       transform="rotate(-60,425.47126,-558.92789)">
      <g
         id="g110"
         transform="translate(-4.9070738,-18.965991)">
        <path
           id="path110"
           style="fill:none;stroke:#000000;stroke-width:0.4;stroke-dasharray:none;stroke-opacity:1"
           d="m 68.043909,111.07487 32.021451,0.0692 z m 0.01188,0.003 -16.061544,27.76904 z m 32.006431,0.0598 -15.976396,27.76956 z m -48.061776,27.66931 32.079995,0.0851 z" />
      </g>
      <path
         style="fill:#1900f6;fill-opacity:1;stroke:#2525ff;stroke-width:0.168518;stroke-dasharray:none;stroke-opacity:1"
         id="path111"
         d="m 107.34937,-104.28966 a 15.995491,4.0089459 0 0 1 -16.028606,3.99227 15.995491,4.0089459 0 0 1 -15.962236,-4.00894 h 15.995491 z"
         transform="matrix(-0.50192518,0.86491105,-0.96644995,-0.256855,0,0)" />
    </g>
    <text
       xml:space="preserve"
       style="font-size:11.0212px;writing-mode:lr-tb;direction:ltr;fill:#1900f6;fill-opacity:1;stroke:#2525ff;stroke-width:0.347124;stroke-dasharray:none;stroke-opacity:1"
       x="978.96191"
       y="37.401222"
       id="text199"
       transform="scale(0.86306499,1.1586613)"><tspan
         id="tspan199"
         style="stroke-width:0.347124"
         x="978.96191"
         y="37.401222">1</tspan></text>
    <text
       xml:space="preserve"
       style="font-size:11.0212px;writing-mode:lr-tb;direction:ltr;fill:#1900f6;fill-opacity:1;stroke:#2525ff;stroke-width:0.347124;stroke-dasharray:none;stroke-opacity:1"
       x="1026.9323"
       y="73.109352"
       id="text200"
       transform="scale(0.86306499,1.1586613)"><tspan
         id="tspan200"
         style="stroke-width:0.347124"
         x="1026.9323"
         y="73.109352">4</tspan></text>
    <text
       xml:space="preserve"
       style="font-size:11.0212px;writing-mode:lr-tb;direction:ltr;fill:#1900f6;fill-opacity:1;stroke:#2525ff;stroke-width:0.347124;stroke-dasharray:none;stroke-opacity:1"
       x="1008.1511"
       y="49.419003"
       id="text201"
       transform="scale(0.86306499,1.1586613)"><tspan
         id="tspan201"
         style="stroke-width:0.347124"
         x="1008.1511"
         y="49.419003">2</tspan></text>
    <text
       xml:space="preserve"
       style="font-size:11.0212px;writing-mode:lr-tb;direction:ltr;fill:#1900f6;fill-opacity:1;stroke:#2525ff;stroke-width:0.347124;stroke-dasharray:none;stroke-opacity:1"
       x="950.98993"
       y="73.466866"
       id="text202"
       transform="scale(0.86306499,1.1586613)"><tspan
         id="tspan202"
         style="stroke-width:0.347124"
         x="950.98993"
         y="73.466866">5</tspan></text>
    <text
       xml:space="preserve"
       style="font-size:11.0212px;writing-mode:lr-tb;direction:ltr;fill:#1900f6;fill-opacity:1;stroke:#2525ff;stroke-width:0.347124;stroke-dasharray:none;stroke-opacity:1"
       x="979.74512"
       y="63.320717"
       id="text203"
       transform="scale(0.86306499,1.1586613)"><tspan
         id="tspan203"
         style="stroke-width:0.347124"
         x="979.74512"
         y="63.320717">3</tspan></text>
  </g>
</svg>
